<?xml version="1.0" standalone="no"?>
<!DOCTYPE svg PUBLIC "-//W3C//DTD SVG 20010904//EN"
 "http://www.w3.org/TR/2001/REC-SVG-20010904/DTD/svg10.dtd">
<svg version="1.0" xmlns="http://www.w3.org/2000/svg"
 width="512.000000pt" height="512.000000pt" viewBox="0 0 512.000000 512.000000"
 preserveAspectRatio="xMidYMid meet">

<g transform="translate(0.000000,512.000000) scale(0.100000,-0.100000)"
fill="#FFDB6E" stroke="none">
<path d="M210 4468 c-66 -25 -145 -101 -180 -173 l-25 -50 0 -1355 0 -1355 28
-57 c34 -69 118 -149 184 -174 45 -18 97 -19 850 -22 l802 -3 -6 -52 c-6 -61
-39 -139 -76 -183 -15 -17 -97 -80 -184 -139 -87 -60 -166 -118 -175 -129 -26
-31 -22 -79 8 -115 l26 -31 814 0 815 0 24 25 c27 26 34 80 15 115 -5 10 -86
71 -179 135 -93 64 -182 132 -197 152 -37 48 -64 124 -64 178 l0 45 309 0 309
0 5 -23 c4 -12 64 -80 135 -150 94 -92 135 -127 153 -127 13 0 61 25 106 55
l82 54 45 -19 c43 -19 45 -23 56 -78 18 -89 31 -136 42 -149 16 -20 391 -18
411 2 8 8 22 49 31 92 23 108 28 117 74 135 l40 15 83 -53 c46 -30 93 -54 104
-54 14 0 70 50 159 139 158 160 153 142 75 258 -27 40 -49 76 -49 80 0 4 7 26
16 49 l16 41 96 19 c58 11 104 26 114 36 16 16 18 40 18 203 0 215 0 215 -97
235 -32 7 -74 15 -93 19 -29 6 -38 14 -53 52 l-19 45 56 89 c39 62 54 95 50
110 -3 11 -63 77 -132 148 -143 144 -153 148 -227 97 -24 -16 -46 -30 -49 -30
-3 0 -6 371 -6 825 0 819 0 825 -21 882 -27 69 -94 145 -164 181 l-50 27
-2025 2 -2025 2 -55 -21z m4095 -117 c50 -22 101 -79 115 -128 8 -26 10 -288
8 -855 -3 -874 -5 -901 -48 -708 -25 113 -38 130 -97 130 l-43 0 0 666 0 666
-29 29 -29 29 -1902 0 c-1285 0 -1908 -3 -1921 -10 -51 -28 -49 18 -49 -1207
0 -1117 0 -1139 20 -1171 11 -17 21 -33 22 -34 2 -2 633 -5 1403 -8 l1400 -5
3 -68 c4 -82 10 -88 135 -113 l88 -18 19 -44 c20 -44 20 -44 -1 -73 l-20 -29
-1519 0 c-1041 0 -1535 3 -1569 11 -34 7 -64 23 -95 50 -82 72 -77 -34 -74
1445 l3 1309 22 42 c23 43 69 84 113 102 16 6 732 10 2015 10 1904 1 1992 0
2030 -18z m-185 -926 l0 -635 -84 0 c-78 0 -86 -2 -104 -25 -11 -14 -27 -63
-37 -114 l-17 -89 -45 -17 -44 -17 -79 50 c-43 28 -88 53 -100 57 -18 6 -44
-16 -161 -131 -93 -93 -139 -145 -139 -160 0 -12 24 -59 54 -105 l54 -83 -15
-40 c-9 -23 -17 -42 -18 -44 -1 -1 -44 -11 -96 -23 -120 -26 -129 -34 -129
-116 l0 -63 -1365 0 -1365 0 0 1095 0 1095 1845 0 1845 0 0 -635z m152 -849
c19 -95 27 -112 61 -122 12 -3 52 -19 89 -35 76 -33 80 -33 173 30 33 23 65
41 70 41 6 0 45 -35 88 -78 l77 -77 -50 -75 c-28 -41 -50 -84 -50 -95 0 -19
55 -164 73 -192 4 -6 42 -19 85 -28 42 -9 85 -19 95 -22 15 -4 17 -18 17 -117
l0 -113 -86 -19 c-47 -9 -94 -25 -104 -33 -21 -18 -70 -131 -77 -177 -4 -24 5
-46 41 -103 25 -39 46 -75 46 -79 0 -4 -35 -43 -79 -86 l-78 -78 -78 51 c-43
28 -84 51 -92 51 -7 0 -30 -8 -51 -19 -20 -10 -56 -24 -79 -31 -24 -7 -49 -20
-58 -29 -8 -9 -22 -55 -32 -101 l-18 -85 -116 -3 -116 -3 -18 85 c-9 47 -23
92 -29 100 -11 14 -173 86 -194 86 -6 0 -48 -23 -93 -52 l-81 -51 -80 80 -79
79 52 82 c58 92 58 87 7 207 -37 89 -38 89 -170 115 l-58 11 0 114 c0 100 2
114 18 118 9 3 42 10 72 17 101 21 105 25 140 108 48 115 48 116 -10 207 l-50
79 77 78 c43 43 81 78 85 78 4 0 38 -20 75 -43 37 -24 76 -47 85 -50 10 -3 46
7 82 23 36 17 71 30 78 30 32 1 51 32 69 112 11 46 21 89 24 96 3 9 33 12 117
10 l112 -3 18 -89z m-1700 -1370 c6 -85 43 -176 101 -242 20 -23 91 -79 159
-125 l122 -84 -336 -3 c-185 -1 -490 -1 -678 0 l-342 3 117 79 c183 125 245
209 267 366 l12 80 287 0 286 0 5 -74z"/>
<path d="M755 3835 l-25 -24 0 -351 0 -351 25 -24 24 -25 326 0 c312 0 326 1
345 20 19 19 20 33 20 384 l0 365 -22 15 c-19 14 -69 16 -346 16 l-323 0 -24
-25z m595 -370 l0 -275 -245 0 -245 0 0 275 0 275 245 0 245 0 0 -275z"/>
<path d="M1870 3840 c-25 -25 -26 -62 -2 -83 17 -16 99 -17 969 -17 908 0 951
1 966 18 23 26 21 55 -6 80 l-23 22 -942 0 c-929 0 -942 0 -962 -20z"/>
<path d="M1867 3502 c-22 -24 -21 -65 1 -85 17 -16 98 -17 965 -17 934 0 947
0 967 20 11 11 20 29 20 40 0 11 -9 29 -20 40 -20 20 -33 20 -968 20 -907 0
-950 -1 -965 -18z"/>
<path d="M1900 3183 c-50 -19 -65 -68 -30 -103 20 -20 33 -20 959 -20 934 0
938 0 965 21 31 25 34 59 5 85 -20 18 -52 19 -953 21 -512 1 -938 -1 -946 -4z"/>
<path d="M754 2845 c-18 -19 -23 -31 -19 -48 17 -55 -55 -52 1118 -54 856 -2
1087 0 1107 10 13 7 29 25 34 40 8 22 6 31 -14 52 l-23 25 -1089 0 -1089 0
-25 -25z"/>
<path d="M764 2522 c-24 -16 -35 -51 -23 -74 7 -13 17 -26 23 -30 6 -4 503 -8
1104 -8 1079 0 1092 0 1112 20 11 11 20 29 20 40 0 11 -9 29 -20 40 -20 20
-33 20 -1112 20 -601 0 -1098 -4 -1104 -8z"/>
<path d="M752 2178 c-24 -31 -23 -57 2 -83 l25 -25 1089 0 1089 0 21 23 c26
28 27 45 6 75 l-15 22 -1103 0 c-871 0 -1106 -3 -1114 -12z"/>
<path d="M4015 2226 c-72 -23 -128 -58 -185 -115 -211 -214 -151 -560 121
-695 195 -96 423 -34 551 151 66 97 89 252 53 369 -38 126 -155 245 -282 284
-75 23 -195 26 -258 6z m260 -139 c180 -92 231 -326 104 -480 -42 -51 -97 -84
-170 -103 -113 -29 -225 8 -307 102 -117 132 -91 355 53 454 97 67 223 77 320
27z"/>
</g>
</svg>
