<?xml version="1.0" standalone="no"?>
<!DOCTYPE svg PUBLIC "-//W3C//DTD SVG 20010904//EN"
 "http://www.w3.org/TR/2001/REC-SVG-20010904/DTD/svg10.dtd">
<svg version="1.0" xmlns="http://www.w3.org/2000/svg"
 width="512.000000pt" height="512.000000pt" viewBox="0 0 512.000000 512.000000"
 preserveAspectRatio="xMidYMid meet">

<g transform="translate(0.000000,512.000000) scale(0.100000,-0.100000)"
fill="#FFDB6E" stroke="none">
<path d="M1330 4156 c-677 -271 -1215 -492 -1227 -504 -28 -26 -30 -72 -5
-100 11 -13 462 -199 1222 -503 663 -265 1215 -484 1227 -487 33 -6 1429 554
1448 581 29 41 10 98 -37 118 -28 11 -72 -5 -714 -261 l-684 -274 -1085 434
c-597 239 -1085 437 -1085 440 0 3 488 201 1085 440 l1085 434 1085 -434 c597
-239 1085 -437 1085 -440 0 -4 -50 -26 -111 -50 -115 -46 -139 -65 -139 -113
0 -34 40 -77 72 -77 37 0 451 169 471 192 22 26 22 70 0 96 -20 24 -2408 984
-2458 988 -21 2 -400 -145 -1235 -480z"/>
<path d="M2505 3735 c-30 -29 -33 -73 -7 -105 17 -20 87 -36 663 -146 354 -68
742 -142 862 -165 l217 -41 -1 -567 0 -566 -47 -30 c-34 -22 -54 -45 -77 -89
-28 -56 -30 -67 -29 -165 0 -72 6 -120 17 -148 15 -40 13 -62 -45 -567 -70
-606 -74 -552 42 -609 88 -45 166 -61 255 -54 117 9 268 79 281 131 3 14 -21
257 -54 541 -58 496 -60 518 -45 558 11 28 17 76 17 148 1 98 -1 109 -29 165
-23 44 -43 67 -77 89 l-47 30 0 612 -1 612 -22 25 c-21 24 -59 32 -493 115
-258 49 -660 126 -893 170 -233 45 -432 81 -443 81 -11 0 -31 -11 -44 -25z
m1866 -1761 c21 -22 24 -35 24 -97 0 -100 -8 -123 -45 -130 -16 -4 -44 -4 -60
0 -37 7 -45 30 -45 130 0 62 3 75 24 97 14 15 35 26 51 26 16 0 37 -11 51 -26z
m4 -429 c13 -98 95 -821 95 -842 0 -29 -48 -52 -125 -60 -60 -6 -163 20 -172
43 -4 12 72 729 93 864 5 35 6 35 54 35 l50 0 5 -40z"/>
<path d="M1145 2935 l-25 -24 0 -505 c0 -277 3 -511 6 -520 8 -20 157 -130
269 -199 672 -408 1515 -433 2215 -66 108 57 297 181 353 232 l37 35 0 511 0
512 -25 24 c-15 16 -36 25 -55 25 -19 0 -40 -9 -55 -25 l-25 -24 0 -475 0
-475 -52 -40 c-250 -187 -587 -326 -923 -378 -151 -24 -459 -24 -610 0 -336
52 -673 191 -922 378 l-53 40 0 475 0 475 -25 24 c-15 16 -36 25 -55 25 -19 0
-40 -9 -55 -25z"/>
</g>
</svg>
