<?xml version="1.0" standalone="no"?>
<!DOCTYPE svg PUBLIC "-//W3C//DTD SVG 20010904//EN"
 "http://www.w3.org/TR/2001/REC-SVG-20010904/DTD/svg10.dtd">
<svg version="1.0" xmlns="http://www.w3.org/2000/svg"
 width="512.000000pt" height="512.000000pt" viewBox="0 0 512.000000 512.000000"
 preserveAspectRatio="xMidYMid meet">

<g transform="translate(0.000000,512.000000) scale(0.100000,-0.100000)"
fill="#000000" stroke="none">
<path d="M1300 3870 c-1318 -572 -1280 -553 -1296 -634 -3 -20 -3 -52 0 -72
16 -81 -23 -62 1300 -635 1117 -483 1232 -531 1270 -526 23 3 416 168 891 374
l850 369 5 -876 c6 -972 1 -911 72 -962 25 -18 46 -23 90 -23 61 0 94 17 132
69 21 27 21 36 24 951 l2 924 -22 14 c-15 10 -392 62 -1053 146 -566 73 -1044
137 -1062 142 -69 22 -113 106 -98 186 9 48 69 109 116 118 36 7 2275 -275
2351 -295 24 -7 48 -24 68 -50 42 -53 75 -54 129 -2 65 61 68 148 8 215 -28
32 -172 97 -1247 563 -842 365 -1229 528 -1260 531 -41 3 -143 -39 -1270 -527z"/>
<path d="M971 2286 c-9 -11 -11 -107 -9 -368 3 -350 4 -354 30 -430 109 -323
483 -591 981 -702 223 -50 314 -60 587 -60 273 0 364 10 587 60 497 111 866
375 980 699 l28 80 3 347 c4 369 2 388 -43 388 -13 0 -331 -133 -706 -296
-376 -162 -707 -302 -738 -310 -70 -18 -152 -18 -221 0 -30 8 -362 148 -737
310 -376 163 -694 296 -707 296 -13 0 -29 -6 -35 -14z"/>
</g>
</svg>
