<?xml version="1.0" standalone="no"?>
<!DOCTYPE svg PUBLIC "-//W3C//DTD SVG 20010904//EN"
 "http://www.w3.org/TR/2001/REC-SVG-20010904/DTD/svg10.dtd">
<svg version="1.0" xmlns="http://www.w3.org/2000/svg"
 width="512.000000pt" height="512.000000pt" viewBox="0 0 512.000000 512.000000"
 preserveAspectRatio="xMidYMid meet">

<g transform="translate(0.000000,512.000000) scale(0.100000,-0.100000)"
fill="#000000" stroke="none">
<path d="M2495 4493 c-54 -8 -144 -33 -464 -129 -532 -160 -1165 -376 -1650
-563 -97 -37 -198 -76 -225 -86 -166 -60 -206 -281 -71 -392 38 -31 360 -160
750 -299 l230 -83 5 -478 c6 -530 4 -520 72 -561 69 -41 509 -209 833 -317
212 -70 564 -175 590 -175 56 0 680 198 997 316 l158 59 0 536 0 536 -606 288
c-352 168 -611 297 -620 309 -20 30 -17 61 9 92 16 18 34 27 53 27 33 0 1268
-584 1299 -614 19 -19 20 -36 25 -564 l5 -545 60 29 c72 34 104 66 116 118 5
21 9 243 9 494 l0 456 178 63 c220 78 625 233 712 272 74 33 105 59 130 108
47 92 32 187 -39 260 -41 42 -65 55 -206 110 -604 236 -1369 495 -1990 674
-183 52 -290 70 -360 59z"/>
</g>
</svg>
