<?xml version="1.0" standalone="no"?>
<!DOCTYPE svg PUBLIC "-//W3C//DTD SVG 20010904//EN"
 "http://www.w3.org/TR/2001/REC-SVG-20010904/DTD/svg10.dtd">
<svg version="1.0" xmlns="http://www.w3.org/2000/svg"
 width="512.000000pt" height="512.000000pt" viewBox="0 0 512.000000 512.000000"
 preserveAspectRatio="xMidYMid meet">

<g transform="translate(0.000000,512.000000) scale(0.100000,-0.100000)"
fill="#C8AD5B" stroke="none">
<path d="M3545 5095 c-24 -23 -25 -31 -25 -135 0 -104 1 -112 25 -135 15 -16
36 -25 55 -25 19 0 40 9 55 25 24 23 25 31 25 135 0 104 -1 112 -25 135 -15
16 -36 25 -55 25 -19 0 -40 -9 -55 -25z"/>
<path d="M3065 5015 c-14 -13 -25 -36 -25 -50 0 -35 95 -222 119 -235 51 -27
121 11 121 65 0 35 -95 222 -119 235 -33 17 -71 11 -96 -15z"/>
<path d="M4037 5029 c-23 -13 -117 -201 -117 -234 0 -54 70 -92 121 -65 24 13
119 200 119 235 0 55 -73 93 -123 64z"/>
<path d="M2745 4695 c-26 -25 -32 -63 -15 -96 13 -24 200 -119 235 -119 54 0
92 70 65 121 -13 24 -200 119 -235 119 -14 0 -37 -11 -50 -25z"/>
<path d="M4278 4670 c-99 -51 -118 -69 -118 -115 0 -33 42 -75 75 -75 35 0
222 95 235 119 27 52 -11 122 -67 120 -15 0 -72 -22 -125 -49z"/>
<path d="M3448 4625 c-155 -32 -283 -127 -346 -255 -36 -73 -66 -214 -59 -275
2 -22 57 -182 121 -355 103 -280 116 -323 116 -379 0 -61 -1 -63 -22 -57 -144
42 -196 48 -455 53 l-261 5 -7 36 c-8 44 -68 196 -94 237 l-19 30 109 111
c149 151 150 137 -34 321 -184 184 -170 183 -319 35 l-109 -107 -86 42 c-48
23 -118 50 -155 60 l-68 17 0 144 c0 138 -1 144 -25 167 -24 25 -26 25 -215
25 -189 0 -191 0 -215 -25 -24 -23 -25 -29 -25 -168 l0 -145 -37 -7 c-45 -8
-197 -68 -238 -94 l-30 -19 -111 109 c-151 149 -137 150 -321 -34 -184 -184
-183 -170 -34 -321 l109 -111 -19 -30 c-26 -41 -86 -193 -94 -238 l-7 -37
-105 0 c-97 0 -106 -2 -128 -25 -25 -24 -25 -26 -25 -215 0 -189 0 -191 25
-215 22 -23 31 -25 128 -25 l105 0 7 -37 c8 -45 68 -197 94 -238 l19 -30 -109
-111 c-149 -151 -150 -137 34 -321 184 -184 170 -183 321 -34 l111 109 30 -19
c41 -26 193 -86 238 -94 l37 -7 0 -145 c0 -139 1 -145 25 -168 23 -24 28 -25
178 -25 l154 0 33 -92 c160 -458 548 -782 1023 -852 294 -44 596 16 848 170
l61 37 421 -420 c447 -445 445 -443 537 -443 124 0 240 116 240 240 0 92 2 90
-443 537 l-420 421 37 61 c298 491 229 1125 -167 1538 l-80 83 72 0 c63 0 75
3 96 25 25 24 25 27 25 193 0 159 2 174 26 238 137 360 214 582 214 614 0 67
-28 189 -59 253 -57 120 -159 207 -290 248 -86 27 -269 34 -363 14z m337 -175
c116 -44 192 -149 210 -293 7 -56 4 -65 -101 -347 l-109 -290 -185 0 -185 0
-109 290 c-105 282 -108 291 -101 347 21 171 117 279 278 313 73 16 235 5 302
-20z m-2185 -264 c0 -167 0 -167 130 -200 102 -25 206 -69 281 -116 75 -49 88
-44 206 72 l104 102 61 -62 62 -61 -102 -104 c-79 -80 -102 -110 -102 -131 0
-15 18 -57 40 -93 22 -37 53 -101 69 -142 28 -75 57 -180 50 -184 -2 -1 -37
-18 -78 -37 -41 -19 -111 -60 -156 -91 l-82 -56 -6 77 c-16 200 -134 375 -311
459 -92 45 -160 61 -249 61 -301 -1 -556 -256 -557 -557 0 -89 16 -157 61
-250 65 -137 181 -236 339 -289 64 -22 256 -25 304 -5 16 6 31 10 33 7 2 -2
-9 -42 -25 -87 -52 -146 -66 -237 -67 -416 l0 -163 -82 0 -83 0 0 134 c0 167
0 167 -130 200 -102 25 -206 69 -281 116 -75 49 -88 44 -206 -72 l-104 -102
-61 62 -62 61 102 104 c116 118 121 131 72 206 -47 75 -91 179 -116 281 -32
125 -38 130 -160 130 l-94 0 0 80 0 80 94 0 c122 0 128 5 160 130 25 102 69
206 116 281 49 75 44 88 -72 206 l-102 104 62 61 61 62 104 -102 c118 -116
131 -121 206 -72 75 47 179 91 281 116 130 33 130 33 130 200 l0 134 80 0 80
0 0 -134z m84 -704 c91 -42 149 -100 194 -190 35 -72 37 -81 37 -172 0 -91 -2
-100 -37 -172 -45 -91 -103 -147 -196 -191 -61 -29 -76 -32 -162 -32 -86 0
-101 3 -162 32 -93 44 -151 100 -196 191 -35 72 -37 81 -37 171 0 87 3 102 32
163 40 85 97 147 172 186 78 42 122 52 213 48 61 -3 92 -11 142 -34z m2076
-202 l0 -80 -130 0 c-98 0 -138 4 -160 15 -29 15 -30 19 -30 80 l0 65 160 0
160 0 0 -80z m-735 -90 c250 -36 469 -145 645 -320 422 -422 440 -1081 43
-1537 -116 -134 -331 -272 -499 -322 -382 -113 -772 -30 -1071 227 -331 285
-465 768 -328 1185 36 110 104 241 175 336 236 313 650 485 1035 431z m1218
-2358 c360 -361 397 -401 397 -430 0 -44 -38 -82 -82 -82 -29 0 -69 37 -433
400 l-400 400 55 55 c30 30 57 55 60 55 3 0 184 -179 403 -398z"/>
<path d="M2713 3026 c-205 -39 -366 -125 -513 -275 -129 -130 -212 -278 -257
-457 -27 -107 -24 -334 6 -444 50 -187 120 -309 256 -445 135 -134 260 -207
445 -257 118 -32 336 -32 457 0 180 47 320 126 449 256 128 128 210 271 256
448 32 122 32 340 0 458 -51 188 -121 309 -257 445 -137 136 -279 217 -456
260 -91 22 -297 28 -386 11z m357 -170 c208 -56 367 -170 481 -344 239 -364
132 -861 -238 -1102 -136 -89 -259 -125 -433 -125 -226 0 -408 75 -564 231
-156 156 -231 338 -231 564 0 174 36 297 125 433 120 185 307 310 525 353 85
16 257 12 335 -10z"/>
<path d="M2265 2135 c-30 -29 -33 -82 -10 -190 56 -269 299 -480 577 -502 72
-6 77 -5 102 20 52 52 17 137 -57 137 -248 0 -477 225 -477 468 0 54 -33 92
-80 92 -19 0 -40 -9 -55 -25z"/>
</g>
</svg>
